<svg xmlns="http://www.w3.org/2000/svg" width="1200" height="900" viewBox="0 0 1200 900">
  <defs>
    <style>
      text { font-family: 'Segoe UI', Arial, sans-serif; }
      .title { font-size: 22px; font-weight: 700; fill: #0a0f1e; }
      .subtitle { font-size: 12px; fill: #4b5563; }
      .card-title-kr { font-size: 13px; font-weight: 700; fill: #ffffff; }
      .card-title-en { font-size: 10px; fill: rgba(255,255,255,0.85); }
      .card-num { font-size: 14px; font-weight: 800; fill: #ffffff; }
      .card-fn { font-size: 9px; fill: rgba(255,255,255,0.9); font-family: 'Courier New', monospace; }
      .shared-label { font-size: 11px; font-weight: 700; fill: #ffffff; }
      .shared-sub { font-size: 9px; fill: rgba(255,255,255,0.85); }
      .section-label { font-size: 11px; font-weight: 600; fill: #374151; }
      .badge-text { font-size: 9px; font-weight: 700; fill: #ffffff; }
      .flow-label { font-size: 9px; fill: #6b7280; }
      .footer-label { font-size: 9px; fill: #6b7280; }
      .legend-text { font-size: 10px; fill: #374151; }
    </style>
    <!-- Drop shadow filter -->
    <filter id="shadow" x="-5%" y="-5%" width="115%" height="125%">
      <feDropShadow dx="0" dy="2" stdDeviation="3" flood-color="rgba(0,0,0,0.12)"/>
    </filter>
    <filter id="shadow-sm" x="-5%" y="-5%" width="115%" height="120%">
      <feDropShadow dx="0" dy="1" stdDeviation="2" flood-color="rgba(0,0,0,0.10)"/>
    </filter>
    <!-- Arrow marker -->
    <marker id="arrow-blue" markerWidth="8" markerHeight="8" refX="6" refY="3" orient="auto">
      <path d="M0,0 L0,6 L8,3 z" fill="#1a56db"/>
    </marker>
    <marker id="arrow-gray" markerWidth="8" markerHeight="8" refX="6" refY="3" orient="auto">
      <path d="M0,0 L0,6 L8,3 z" fill="#9ca3af"/>
    </marker>
    <marker id="arrow-dark" markerWidth="8" markerHeight="8" refX="6" refY="3" orient="auto">
      <path d="M0,0 L0,6 L8,3 z" fill="#4b5563"/>
    </marker>
    <!-- Gradient backgrounds -->
    <linearGradient id="bg-grad" x1="0%" y1="0%" x2="100%" y2="100%">
      <stop offset="0%" style="stop-color:#f8faff;stop-opacity:1"/>
      <stop offset="100%" style="stop-color:#f0f4ff;stop-opacity:1"/>
    </linearGradient>
    <linearGradient id="index-grad" x1="0%" y1="0%" x2="100%" y2="100%">
      <stop offset="0%" style="stop-color:#1a56db;stop-opacity:1"/>
      <stop offset="100%" style="stop-color:#1345b5;stop-opacity:1"/>
    </linearGradient>
    <linearGradient id="p01-grad" x1="0%" y1="0%" x2="100%" y2="100%">
      <stop offset="0%" style="stop-color:#1f6feb;stop-opacity:1"/>
      <stop offset="100%" style="stop-color:#1558d4;stop-opacity:1"/>
    </linearGradient>
    <linearGradient id="p02-grad" x1="0%" y1="0%" x2="100%" y2="100%">
      <stop offset="0%" style="stop-color:#c89520;stop-opacity:1"/>
      <stop offset="100%" style="stop-color:#a87a10;stop-opacity:1"/>
    </linearGradient>
    <linearGradient id="p03-grad" x1="0%" y1="0%" x2="100%" y2="100%">
      <stop offset="0%" style="stop-color:#f85149;stop-opacity:1"/>
      <stop offset="100%" style="stop-color:#d93f38;stop-opacity:1"/>
    </linearGradient>
    <linearGradient id="p04-grad" x1="0%" y1="0%" x2="100%" y2="100%">
      <stop offset="0%" style="stop-color:#3fb950;stop-opacity:1"/>
      <stop offset="100%" style="stop-color:#2ea040;stop-opacity:1"/>
    </linearGradient>
    <linearGradient id="p05-grad" x1="0%" y1="0%" x2="100%" y2="100%">
      <stop offset="0%" style="stop-color:#9d5fe0;stop-opacity:1"/>
      <stop offset="100%" style="stop-color:#7c3fc0;stop-opacity:1"/>
    </linearGradient>
    <linearGradient id="p06-grad" x1="0%" y1="0%" x2="100%" y2="100%">
      <stop offset="0%" style="stop-color:#f0883e;stop-opacity:1"/>
      <stop offset="100%" style="stop-color:#d46e28;stop-opacity:1"/>
    </linearGradient>
    <linearGradient id="p07-grad" x1="0%" y1="0%" x2="100%" y2="100%">
      <stop offset="0%" style="stop-color:#2d8cf0;stop-opacity:1"/>
      <stop offset="100%" style="stop-color:#1a70d4;stop-opacity:1"/>
    </linearGradient>
    <linearGradient id="js-grad" x1="0%" y1="0%" x2="100%" y2="100%">
      <stop offset="0%" style="stop-color:#0d9488;stop-opacity:1"/>
      <stop offset="100%" style="stop-color:#0a7a74;stop-opacity:1"/>
    </linearGradient>
    <linearGradient id="css-grad" x1="0%" y1="0%" x2="100%" y2="100%">
      <stop offset="0%" style="stop-color:#6433c5;stop-opacity:1"/>
      <stop offset="100%" style="stop-color:#4f25a0;stop-opacity:1"/>
    </linearGradient>
  </defs>

  <!-- Background -->
  <rect width="1200" height="900" fill="url(#bg-grad)"/>

  <!-- Header band -->
  <rect x="0" y="0" width="1200" height="80" fill="#fef7e4" rx="0" stroke="#e8d9b8" stroke-width="0"/>
  <rect x="0" y="78" width="1200" height="2" fill="#d4b896"/>

  <!-- Title -->
  <text x="600" y="32" text-anchor="middle" font-size="26" font-weight="900" fill="#0f172a" font-family="'Segoe UI',Arial,sans-serif">VCOS — Vibe Coding Operating System</text>
  <text x="600" y="55" text-anchor="middle" font-size="14" font-weight="700" fill="#44321a" font-family="'Segoe UI',Arial,sans-serif">Platform Site Structure · Page Flow · Shared Engine Architecture</text>
  <text x="600" y="72" text-anchor="middle" font-size="11" font-weight="600" fill="#7a6540" font-family="'Segoe UI',Arial,sans-serif">pages/ 01–07 · vcos.js · vcos.css · buildNav() · buildProgress() · buildFooter()</text>

  <!-- ==================== SHARED BASE LAYER ==================== -->
  <!-- Base layer background -->
  <rect x="30" y="810" width="1140" height="72" rx="10" fill="#f0faf9" stroke="#0d9488" stroke-width="1.5" stroke-dasharray="5,3" filter="url(#shadow-sm)"/>
  <text x="50" y="828" class="section-label" fill="#0d9488">SHARED ENGINE LAYER — vcos.js + vcos.css (모든 페이지에 공통 적용)</text>

  <!-- vcos.js card -->
  <rect x="50" y="834" width="220" height="40" rx="7" fill="url(#js-grad)" filter="url(#shadow-sm)"/>
  <text x="68" y="849" class="shared-label">⚙ vcos.js</text>
  <text x="68" y="861" class="shared-sub">buildNav() · buildProgress() · buildFooter()</text>
  <text x="68" y="871" class="shared-sub">saveProject() · loadProject() · localStorage</text>

  <!-- vcos.css card -->
  <rect x="290" y="834" width="180" height="40" rx="7" fill="url(#css-grad)" filter="url(#shadow-sm)"/>
  <text x="308" y="849" class="shared-label">🎨 vcos.css</text>
  <text x="308" y="861" class="shared-sub">프리미엄 라이트 테마</text>
  <text x="308" y="871" class="shared-sub">Responsive · Dark-ready</text>

  <!-- Shared functions info -->
  <rect x="490" y="834" width="660" height="40" rx="7" fill="white" stroke="#e5e7eb" stroke-width="1" filter="url(#shadow-sm)"/>
  <text x="510" y="849" font-size="10" font-weight="700" fill="#374151">공통 컴포넌트 (모든 페이지)</text>
  <text x="510" y="862" font-size="9" fill="#6b7280" font-family="Courier New, monospace">buildNav()  →  현재 스텝 하이라이트 네비게이션 바</text>
  <text x="510" y="872" font-size="9" fill="#6b7280" font-family="Courier New, monospace">buildProgress()  →  1-7 단계 진행률 표시  |  buildFooter()  →  공통 푸터</text>
  <text x="800" y="849" font-size="9" fill="#9ca3af">localStorage key: vcos_project</text>
  <text x="800" y="862" font-size="9" fill="#9ca3af">Auto-save on every step change</text>
  <text x="800" y="872" font-size="9" fill="#9ca3af">Restore state on page load</text>

  <!-- ==================== INDEX (HUB) ==================== -->
  <rect x="380" y="82" width="440" height="90" rx="12" fill="url(#index-grad)" filter="url(#shadow)"/>
  <!-- Number badge -->
  <rect x="392" y="90" width="30" height="30" rx="6" fill="rgba(255,255,255,0.2)"/>
  <text x="407" y="110" text-anchor="middle" class="card-num">🏠</text>
  <!-- File name -->
  <text x="432" y="103" font-size="10" fill="rgba(255,255,255,0.7)" font-family="Courier New, monospace">index.html</text>
  <text x="432" y="118" class="card-title-kr" font-size="15">VCOS 허브</text>
  <text x="432" y="133" class="card-title-en" font-size="11">Vibe Coding Operating System — 메인 허브</text>
  <text x="432" y="149" class="card-fn">Entry point · 7-step wizard navigation · Project overview dashboard</text>
  <!-- Nav badge -->
  <rect x="680" y="92" width="128" height="16" rx="4" fill="rgba(255,255,255,0.15)"/>
  <text x="744" y="104" text-anchor="middle" class="badge-text">buildNav() + buildFooter()</text>
  <rect x="680" y="112" width="128" height="16" rx="4" fill="rgba(255,255,255,0.15)"/>
  <text x="744" y="124" text-anchor="middle" class="badge-text">All 7 steps linked</text>
  <rect x="680" y="132" width="128" height="16" rx="4" fill="rgba(255,255,255,0.15)"/>
  <text x="744" y="144" text-anchor="middle" class="badge-text">localStorage restore</text>

  <!-- Hub to pages arrows (downward fan) -->
  <!-- Center line down from hub -->
  <line x1="600" y1="172" x2="600" y2="200" stroke="#1a56db" stroke-width="2" stroke-dasharray="4,2"/>

  <!-- Horizontal distribution line -->
  <line x1="90" y1="200" x2="1110" y2="200" stroke="#1a56db" stroke-width="1.5" stroke-dasharray="4,2"/>

  <!-- Vertical drops to pages -->
  <line x1="90" y1="200" x2="90" y2="228" stroke="#1a56db" stroke-width="1.5" marker-end="url(#arrow-blue)"/>
  <line x1="240" y1="200" x2="240" y2="228" stroke="#1a56db" stroke-width="1.5" marker-end="url(#arrow-blue)"/>
  <line x1="390" y1="200" x2="390" y2="228" stroke="#1a56db" stroke-width="1.5" marker-end="url(#arrow-blue)"/>
  <line x1="540" y1="200" x2="540" y2="228" stroke="#1a56db" stroke-width="1.5" marker-end="url(#arrow-blue)"/>
  <line x1="690" y1="200" x2="690" y2="228" stroke="#1a56db" stroke-width="1.5" marker-end="url(#arrow-blue)"/>
  <line x1="840" y1="200" x2="840" y2="228" stroke="#1a56db" stroke-width="1.5" marker-end="url(#arrow-blue)"/>
  <line x1="990" y1="200" x2="990" y2="228" stroke="#1a56db" stroke-width="1.5" marker-end="url(#arrow-blue)"/>

  <!-- ==================== PAGE CARDS ROW 1 (01-04) ==================== -->

  <!-- PAGE 01 -->
  <rect x="30" y="228" width="148" height="148" rx="10" fill="url(#p01-grad)" filter="url(#shadow)"/>
  <rect x="38" y="235" width="26" height="26" rx="5" fill="rgba(255,255,255,0.2)"/>
  <text x="51" y="253" text-anchor="middle" class="card-num">01</text>
  <text x="38" y="272" font-size="8.5" fill="rgba(255,255,255,0.7)" font-family="Courier New, monospace">01-intent.html</text>
  <text x="38" y="287" class="card-title-kr">프로젝트 인텐트 입력</text>
  <text x="38" y="300" class="card-title-en">Intent Capture Engine</text>
  <line x1="38" y1="307" x2="165" y2="307" stroke="rgba(255,255,255,0.2)" stroke-width="1"/>
  <text x="38" y="320" class="card-fn">saveProject()</text>
  <text x="38" y="332" class="card-fn">loadProject()</text>
  <text x="38" y="344" class="card-fn">→ localStorage</text>
  <text x="38" y="357" class="card-fn">projectType · description</text>
  <text x="38" y="368" class="card-fn">goals · constraints</text>

  <!-- PAGE 02 -->
  <rect x="182" y="228" width="148" height="148" rx="10" fill="url(#p02-grad)" filter="url(#shadow)"/>
  <rect x="190" y="235" width="26" height="26" rx="5" fill="rgba(255,255,255,0.2)"/>
  <text x="203" y="253" text-anchor="middle" class="card-num">02</text>
  <text x="190" y="272" font-size="8.5" fill="rgba(255,255,255,0.7)" font-family="Courier New, monospace">02-complexity.html</text>
  <text x="190" y="287" class="card-title-kr">복잡도 분석</text>
  <text x="190" y="300" class="card-title-en">Project Complexity AI</text>
  <line x1="190" y1="307" x2="317" y2="307" stroke="rgba(255,255,255,0.2)" stroke-width="1"/>
  <text x="190" y="320" class="card-fn">calcComplexity()</text>
  <text x="190" y="332" class="card-fn">getProjectType()</text>
  <text x="190" y="344" class="card-fn">→ Score: 1–100</text>
  <text x="190" y="357" class="card-fn">Low · Mid · High · X</text>
  <text x="190" y="368" class="card-fn">AI scoring matrix</text>

  <!-- PAGE 03 -->
  <rect x="334" y="228" width="148" height="148" rx="10" fill="url(#p03-grad)" filter="url(#shadow)"/>
  <rect x="342" y="235" width="26" height="26" rx="5" fill="rgba(255,255,255,0.2)"/>
  <text x="355" y="253" text-anchor="middle" class="card-num">03</text>
  <text x="342" y="272" font-size="8.5" fill="rgba(255,255,255,0.7)" font-family="Courier New, monospace">03-squad.html</text>
  <text x="342" y="287" class="card-title-kr">분대 편성</text>
  <text x="342" y="300" class="card-title-en">Dynamic Squad Deployment</text>
  <line x1="342" y1="307" x2="469" y2="307" stroke="rgba(255,255,255,0.2)" stroke-width="1"/>
  <text x="342" y="320" class="card-fn">buildSquads()</text>
  <text x="342" y="332" class="card-fn">→ HQ Command</text>
  <text x="342" y="344" class="card-fn">→ Alpha · Bravo</text>
  <text x="342" y="356" class="card-fn">→ Charlie · Delta</text>
  <text x="342" y="368" class="card-fn">→ Echo (6 squads)</text>

  <!-- PAGE 04 -->
  <rect x="486" y="228" width="148" height="148" rx="10" fill="url(#p04-grad)" filter="url(#shadow)"/>
  <rect x="494" y="235" width="26" height="26" rx="5" fill="rgba(255,255,255,0.2)"/>
  <text x="507" y="253" text-anchor="middle" class="card-num">04</text>
  <text x="494" y="272" font-size="8.5" fill="rgba(255,255,255,0.7)" font-family="Courier New, monospace">04-skills.html</text>
  <text x="494" y="287" class="card-title-kr">스킬 전략</text>
  <text x="494" y="300" class="card-title-en">Skill Graph Engine</text>
  <line x1="494" y1="307" x2="621" y2="307" stroke="rgba(255,255,255,0.2)" stroke-width="1"/>
  <text x="494" y="320" class="card-fn">getRelevantSkills()</text>
  <text x="494" y="332" class="card-fn">→ 21-Skills filter</text>
  <text x="494" y="344" class="card-fn">Frontend · Backend</text>
  <text x="494" y="356" class="card-fn">AI/ML · DevOps · DB</text>
  <text x="494" y="368" class="card-fn">Skill priority graph</text>

  <!-- ==================== PAGE CARDS ROW 2 (05-07) ==================== -->

  <!-- PAGE 05 -->
  <rect x="638" y="228" width="148" height="148" rx="10" fill="url(#p05-grad)" filter="url(#shadow)"/>
  <rect x="646" y="235" width="26" height="26" rx="5" fill="rgba(255,255,255,0.2)"/>
  <text x="659" y="253" text-anchor="middle" class="card-num">05</text>
  <text x="646" y="272" font-size="8.5" fill="rgba(255,255,255,0.7)" font-family="Courier New, monospace">05-token.html</text>
  <text x="646" y="287" class="card-title-kr">토큰 최적화 전략</text>
  <text x="646" y="300" class="card-title-en">AI Routing Engine</text>
  <line x1="646" y1="307" x2="773" y2="307" stroke="rgba(255,255,255,0.2)" stroke-width="1"/>
  <text x="646" y="320" class="card-fn">calcTokenEstimate()</text>
  <text x="646" y="332" class="card-fn">→ Haiku cost</text>
  <text x="646" y="344" class="card-fn">→ Sonnet cost</text>
  <text x="646" y="356" class="card-fn">→ Opus cost</text>
  <text x="646" y="368" class="card-fn">Optimal model routing</text>

  <!-- PAGE 06 -->
  <rect x="790" y="228" width="148" height="148" rx="10" fill="url(#p06-grad)" filter="url(#shadow)"/>
  <rect x="798" y="235" width="26" height="26" rx="5" fill="rgba(255,255,255,0.2)"/>
  <text x="811" y="253" text-anchor="middle" class="card-num">06</text>
  <text x="798" y="272" font-size="8.5" fill="rgba(255,255,255,0.7)" font-family="Courier New, monospace">06-refinement.html</text>
  <text x="798" y="287" class="card-title-kr">고도화 엔진</text>
  <text x="798" y="300" class="card-title-en">Self-Improving Engine</text>
  <line x1="798" y1="307" x2="925" y2="307" stroke="rgba(255,255,255,0.2)" stroke-width="1"/>
  <text x="798" y="320" class="card-fn">calcRefineScores()</text>
  <text x="798" y="332" class="card-fn">→ V1 Quality loop</text>
  <text x="798" y="344" class="card-fn">→ V2 · V3 · V4</text>
  <text x="798" y="356" class="card-fn">Score delta tracking</text>
  <text x="798" y="368" class="card-fn">Auto-improve strategy</text>

  <!-- PAGE 07 -->
  <rect x="942" y="228" width="148" height="148" rx="10" fill="url(#p07-grad)" filter="url(#shadow)"/>
  <rect x="950" y="235" width="26" height="26" rx="5" fill="rgba(255,255,255,0.2)"/>
  <text x="963" y="253" text-anchor="middle" class="card-num">07</text>
  <text x="950" y="272" font-size="8.5" fill="rgba(255,255,255,0.7)" font-family="Courier New, monospace">07-command.html</text>
  <text x="950" y="287" class="card-title-kr">명령어 생성</text>
  <text x="950" y="300" class="card-title-en">Vibe Command Generator</text>
  <line x1="950" y1="307" x2="1077" y2="307" stroke="rgba(255,255,255,0.2)" stroke-width="1"/>
  <text x="950" y="320" class="card-fn">generateCommand()</text>
  <text x="950" y="332" class="card-fn">→ Final markdown</text>
  <text x="950" y="344" class="card-fn">Claude Code prompt</text>
  <text x="950" y="356" class="card-fn">Copy · Export · Share</text>
  <text x="950" y="368" class="card-fn">⭐ Final Output</text>

  <!-- ==================== LINEAR FLOW ARROWS (01→02→...→07) ==================== -->
  <!-- Arrow 01 → 02 -->
  <line x1="178" y1="302" x2="182" y2="302" stroke="#4b5563" stroke-width="2" marker-end="url(#arrow-dark)"/>
  <text x="180" y="295" text-anchor="middle" class="flow-label">→</text>

  <!-- Arrow 02 → 03 -->
  <line x1="330" y1="302" x2="334" y2="302" stroke="#4b5563" stroke-width="2" marker-end="url(#arrow-dark)"/>

  <!-- Arrow 03 → 04 -->
  <line x1="482" y1="302" x2="486" y2="302" stroke="#4b5563" stroke-width="2" marker-end="url(#arrow-dark)"/>

  <!-- Arrow 04 → 05 -->
  <line x1="634" y1="302" x2="638" y2="302" stroke="#4b5563" stroke-width="2" marker-end="url(#arrow-dark)"/>

  <!-- Arrow 05 → 06 -->
  <line x1="786" y1="302" x2="790" y2="302" stroke="#4b5563" stroke-width="2" marker-end="url(#arrow-dark)"/>

  <!-- Arrow 06 → 07 -->
  <line x1="938" y1="302" x2="942" y2="302" stroke="#4b5563" stroke-width="2" marker-end="url(#arrow-dark)"/>

  <!-- ==================== DETAIL SECTIONS ==================== -->

  <!-- Squad detail box (under page 03) -->
  <rect x="30" y="400" width="452" height="140" rx="10" fill="white" stroke="#f85149" stroke-width="1.5" filter="url(#shadow-sm)"/>
  <rect x="30" y="400" width="452" height="26" rx="10" fill="#f85149"/>
  <rect x="30" y="416" width="452" height="10" fill="#f85149"/>
  <text x="50" y="418" font-size="11" font-weight="700" fill="white">03 · buildSquads() — 분대 편성 구조</text>

  <!-- Squad cards -->
  <!-- HQ -->
  <rect x="42" y="434" width="64" height="52" rx="6" fill="#1a56db"/>
  <text x="74" y="452" text-anchor="middle" font-size="9" font-weight="700" fill="white">HQ</text>
  <text x="74" y="464" text-anchor="middle" font-size="8" fill="rgba(255,255,255,0.85)">Command</text>
  <text x="74" y="475" text-anchor="middle" font-size="7.5" fill="rgba(255,255,255,0.75)">총괄 지휘</text>
  <text x="74" y="484" text-anchor="middle" font-size="7" fill="rgba(255,255,255,0.7)">Architect</text>
  <!-- Alpha -->
  <rect x="114" y="434" width="60" height="52" rx="6" fill="#1f6feb"/>
  <text x="144" y="452" text-anchor="middle" font-size="9" font-weight="700" fill="white">Alpha</text>
  <text x="144" y="464" text-anchor="middle" font-size="8" fill="rgba(255,255,255,0.85)">Frontend</text>
  <text x="144" y="475" text-anchor="middle" font-size="7.5" fill="rgba(255,255,255,0.75)">UI/UX</text>
  <text x="144" y="484" text-anchor="middle" font-size="7" fill="rgba(255,255,255,0.7)">React/Vue</text>
  <!-- Bravo -->
  <rect x="182" y="434" width="60" height="52" rx="6" fill="#3fb950"/>
  <text x="212" y="452" text-anchor="middle" font-size="9" font-weight="700" fill="white">Bravo</text>
  <text x="212" y="464" text-anchor="middle" font-size="8" fill="rgba(255,255,255,0.85)">Backend</text>
  <text x="212" y="475" text-anchor="middle" font-size="7.5" fill="rgba(255,255,255,0.75)">API/DB</text>
  <text x="212" y="484" text-anchor="middle" font-size="7" fill="rgba(255,255,255,0.7)">Node/Python</text>
  <!-- Charlie -->
  <rect x="250" y="434" width="60" height="52" rx="6" fill="#9d5fe0"/>
  <text x="280" y="452" text-anchor="middle" font-size="9" font-weight="700" fill="white">Charlie</text>
  <text x="280" y="464" text-anchor="middle" font-size="8" fill="rgba(255,255,255,0.85)">AI/ML</text>
  <text x="280" y="475" text-anchor="middle" font-size="7.5" fill="rgba(255,255,255,0.75)">모델 통합</text>
  <text x="280" y="484" text-anchor="middle" font-size="7" fill="rgba(255,255,255,0.7)">LLM/RAG</text>
  <!-- Delta -->
  <rect x="318" y="434" width="60" height="52" rx="6" fill="#f0883e"/>
  <text x="348" y="452" text-anchor="middle" font-size="9" font-weight="700" fill="white">Delta</text>
  <text x="348" y="464" text-anchor="middle" font-size="8" fill="rgba(255,255,255,0.85)">DevOps</text>
  <text x="348" y="475" text-anchor="middle" font-size="7.5" fill="rgba(255,255,255,0.75)">배포/CI-CD</text>
  <text x="348" y="484" text-anchor="middle" font-size="7" fill="rgba(255,255,255,0.7)">Docker/K8s</text>
  <!-- Echo -->
  <rect x="386" y="434" width="84" height="52" rx="6" fill="#c89520"/>
  <text x="428" y="452" text-anchor="middle" font-size="9" font-weight="700" fill="white">Echo</text>
  <text x="428" y="464" text-anchor="middle" font-size="8" fill="rgba(255,255,255,0.85)">QA · Security</text>
  <text x="428" y="475" text-anchor="middle" font-size="7.5" fill="rgba(255,255,255,0.75)">테스트 · 보안</text>
  <text x="428" y="484" text-anchor="middle" font-size="7" fill="rgba(255,255,255,0.7)">Audit / Review</text>

  <text x="50" y="508" font-size="9" fill="#6b7280">* 프로젝트 복잡도(02)에 따라 분대 활성화 여부 결정 — Low: Alpha+Bravo / High: 전 분대 동원</text>
  <text x="50" y="520" font-size="9" fill="#6b7280">* HQ는 항상 활성 — 프로젝트 아키텍처 설계 · 분대 간 인터페이스 정의 담당</text>
  <text x="50" y="532" font-size="9" fill="#6b7280">* buildSquads() returns squad config object → passed to 04-skills · 05-token · 07-command</text>

  <!-- Token detail box -->
  <rect x="496" y="400" width="320" height="140" rx="10" fill="white" stroke="#9d5fe0" stroke-width="1.5" filter="url(#shadow-sm)"/>
  <rect x="496" y="400" width="320" height="26" rx="10" fill="#9d5fe0"/>
  <rect x="496" y="416" width="320" height="10" fill="#9d5fe0"/>
  <text x="516" y="418" font-size="11" font-weight="700" fill="white">05 · calcTokenEstimate() — AI 모델 라우팅</text>

  <text x="516" y="444" font-size="10" font-weight="700" fill="#374151">Model Cost Estimation</text>

  <!-- Haiku -->
  <rect x="514" y="452" width="84" height="38" rx="5" fill="#f0faf9" stroke="#0d9488" stroke-width="1"/>
  <text x="556" y="466" text-anchor="middle" font-size="9" font-weight="700" fill="#0d9488">Haiku</text>
  <text x="556" y="478" text-anchor="middle" font-size="8" fill="#374151">$0.25/MTok</text>
  <text x="556" y="487" text-anchor="middle" font-size="7.5" fill="#6b7280">단순 반복</text>

  <!-- Sonnet -->
  <rect x="606" y="452" width="84" height="38" rx="5" fill="#eff6ff" stroke="#1f6feb" stroke-width="1"/>
  <text x="648" y="466" text-anchor="middle" font-size="9" font-weight="700" fill="#1f6feb">Sonnet</text>
  <text x="648" y="478" text-anchor="middle" font-size="8" fill="#374151">$3/MTok</text>
  <text x="648" y="487" text-anchor="middle" font-size="7.5" fill="#6b7280">균형 작업</text>

  <!-- Opus -->
  <rect x="698" y="452" width="100" height="38" rx="5" fill="#fdf4ff" stroke="#9d5fe0" stroke-width="1"/>
  <text x="748" y="466" text-anchor="middle" font-size="9" font-weight="700" fill="#9d5fe0">Opus</text>
  <text x="748" y="478" text-anchor="middle" font-size="8" fill="#374151">$15/MTok</text>
  <text x="748" y="487" text-anchor="middle" font-size="7.5" fill="#6b7280">복잡 추론</text>

  <text x="514" y="506" font-size="8.5" fill="#6b7280">* 복잡도 score + 분대 수 → optimal model 자동 선택</text>
  <text x="514" y="518" font-size="8.5" fill="#6b7280">* Monthly cost projection · Token budget allocation</text>
  <text x="514" y="530" font-size="8.5" fill="#6b7280">* Per-squad model routing: HQ=Opus · Alpha/Bravo=Sonnet · etc</text>

  <!-- Refinement detail box -->
  <rect x="830" y="400" width="340" height="140" rx="10" fill="white" stroke="#f0883e" stroke-width="1.5" filter="url(#shadow-sm)"/>
  <rect x="830" y="400" width="340" height="26" rx="10" fill="#f0883e"/>
  <rect x="830" y="416" width="340" height="10" fill="#f0883e"/>
  <text x="850" y="418" font-size="11" font-weight="700" fill="white">06 · calcRefineScores() — 품질 향상 루프</text>

  <!-- Version cards -->
  <rect x="848" y="434" width="58" height="50" rx="5" fill="#f9fafb" stroke="#e5e7eb" stroke-width="1"/>
  <text x="877" y="450" text-anchor="middle" font-size="10" font-weight="700" fill="#f85149">V1</text>
  <text x="877" y="462" text-anchor="middle" font-size="8" fill="#6b7280">초안</text>
  <text x="877" y="473" text-anchor="middle" font-size="9" font-weight="600" fill="#374151">60/100</text>
  <text x="877" y="482" text-anchor="middle" font-size="7" fill="#9ca3af">baseline</text>

  <text x="912" y="462" text-anchor="middle" font-size="14" fill="#9ca3af">→</text>

  <rect x="920" y="434" width="58" height="50" rx="5" fill="#f9fafb" stroke="#e5e7eb" stroke-width="1"/>
  <text x="949" y="450" text-anchor="middle" font-size="10" font-weight="700" fill="#c89520">V2</text>
  <text x="949" y="462" text-anchor="middle" font-size="8" fill="#6b7280">개선</text>
  <text x="949" y="473" text-anchor="middle" font-size="9" font-weight="600" fill="#374151">75/100</text>
  <text x="949" y="482" text-anchor="middle" font-size="7" fill="#9ca3af">+15pts</text>

  <text x="984" y="462" text-anchor="middle" font-size="14" fill="#9ca3af">→</text>

  <rect x="992" y="434" width="58" height="50" rx="5" fill="#f9fafb" stroke="#e5e7eb" stroke-width="1"/>
  <text x="1021" y="450" text-anchor="middle" font-size="10" font-weight="700" fill="#3fb950">V3</text>
  <text x="1021" y="462" text-anchor="middle" font-size="8" fill="#6b7280">정교화</text>
  <text x="1021" y="473" text-anchor="middle" font-size="9" font-weight="600" fill="#374151">88/100</text>
  <text x="1021" y="482" text-anchor="middle" font-size="7" fill="#9ca3af">+13pts</text>

  <text x="1056" y="462" text-anchor="middle" font-size="14" fill="#9ca3af">→</text>

  <rect x="1064" y="434" width="84" height="50" rx="5" fill="#eff6ff" stroke="#1a56db" stroke-width="1.5"/>
  <text x="1106" y="450" text-anchor="middle" font-size="10" font-weight="700" fill="#1a56db">V4</text>
  <text x="1106" y="462" text-anchor="middle" font-size="8" fill="#374151">완성본</text>
  <text x="1106" y="473" text-anchor="middle" font-size="10" font-weight="700" fill="#1a56db">95/100</text>
  <text x="1106" y="482" text-anchor="middle" font-size="7" fill="#6b7280">Production</text>

  <text x="848" y="506" font-size="8.5" fill="#6b7280">* 각 버전: code quality · test coverage · security · perf · maintainability 5축 평가</text>
  <text x="848" y="518" font-size="8.5" fill="#6b7280">* delta score &lt; 3 → refinement 완료 신호 → 07-command 진행</text>
  <text x="848" y="530" font-size="8.5" fill="#6b7280">* 자동 개선 전략 생성: 취약 영역 식별 → 프롬프트 보강 → 재평가</text>

  <!-- ==================== FLOW DIAGRAM (bottom) ==================== -->
  <rect x="30" y="556" width="1140" height="100" rx="10" fill="white" stroke="#e5e7eb" stroke-width="1.5" filter="url(#shadow-sm)"/>
  <text x="50" y="574" font-size="11" font-weight="700" fill="#1e3a8a">LINEAR WIZARD FLOW — 전체 7단계 순서 흐름 (index → 01 → 02 → 03 → 04 → 05 → 06 → 07)</text>

  <!-- Flow nodes -->
  <!-- index -->
  <rect x="42" y="582" width="78" height="40" rx="6" fill="#1a56db"/>
  <text x="81" y="597" text-anchor="middle" font-size="9" font-weight="700" fill="white">index.html</text>
  <text x="81" y="609" text-anchor="middle" font-size="8" fill="rgba(255,255,255,0.85)">VCOS 허브</text>
  <text x="81" y="619" text-anchor="middle" font-size="7.5" fill="rgba(255,255,255,0.75)">메인 대시보드</text>
  <line x1="120" y1="602" x2="136" y2="602" stroke="#4b5563" stroke-width="1.5" marker-end="url(#arrow-dark)"/>

  <!-- 01 -->
  <rect x="138" y="582" width="72" height="40" rx="6" fill="#1f6feb"/>
  <text x="174" y="597" text-anchor="middle" font-size="9" font-weight="700" fill="white">01</text>
  <text x="174" y="609" text-anchor="middle" font-size="8" fill="rgba(255,255,255,0.85)">인텐트 입력</text>
  <text x="174" y="619" text-anchor="middle" font-size="7.5" fill="rgba(255,255,255,0.75)">프로젝트 정의</text>
  <line x1="210" y1="602" x2="226" y2="602" stroke="#4b5563" stroke-width="1.5" marker-end="url(#arrow-dark)"/>

  <!-- 02 -->
  <rect x="228" y="582" width="72" height="40" rx="6" fill="#c89520"/>
  <text x="264" y="597" text-anchor="middle" font-size="9" font-weight="700" fill="white">02</text>
  <text x="264" y="609" text-anchor="middle" font-size="8" fill="rgba(255,255,255,0.85)">복잡도 분석</text>
  <text x="264" y="619" text-anchor="middle" font-size="7.5" fill="rgba(255,255,255,0.75)">AI 평가 점수</text>
  <line x1="300" y1="602" x2="316" y2="602" stroke="#4b5563" stroke-width="1.5" marker-end="url(#arrow-dark)"/>

  <!-- 03 -->
  <rect x="318" y="582" width="72" height="40" rx="6" fill="#f85149"/>
  <text x="354" y="597" text-anchor="middle" font-size="9" font-weight="700" fill="white">03</text>
  <text x="354" y="609" text-anchor="middle" font-size="8" fill="rgba(255,255,255,0.85)">분대 편성</text>
  <text x="354" y="619" text-anchor="middle" font-size="7.5" fill="rgba(255,255,255,0.75)">6개 분대 배치</text>
  <line x1="390" y1="602" x2="406" y2="602" stroke="#4b5563" stroke-width="1.5" marker-end="url(#arrow-dark)"/>

  <!-- 04 -->
  <rect x="408" y="582" width="72" height="40" rx="6" fill="#3fb950"/>
  <text x="444" y="597" text-anchor="middle" font-size="9" font-weight="700" fill="white">04</text>
  <text x="444" y="609" text-anchor="middle" font-size="8" fill="rgba(255,255,255,0.85)">스킬 전략</text>
  <text x="444" y="619" text-anchor="middle" font-size="7.5" fill="rgba(255,255,255,0.75)">21 스킬 필터</text>
  <line x1="480" y1="602" x2="496" y2="602" stroke="#4b5563" stroke-width="1.5" marker-end="url(#arrow-dark)"/>

  <!-- 05 -->
  <rect x="498" y="582" width="72" height="40" rx="6" fill="#9d5fe0"/>
  <text x="534" y="597" text-anchor="middle" font-size="9" font-weight="700" fill="white">05</text>
  <text x="534" y="609" text-anchor="middle" font-size="8" fill="rgba(255,255,255,0.85)">토큰 전략</text>
  <text x="534" y="619" text-anchor="middle" font-size="7.5" fill="rgba(255,255,255,0.75)">모델 라우팅</text>
  <line x1="570" y1="602" x2="586" y2="602" stroke="#4b5563" stroke-width="1.5" marker-end="url(#arrow-dark)"/>

  <!-- 06 -->
  <rect x="588" y="582" width="72" height="40" rx="6" fill="#f0883e"/>
  <text x="624" y="597" text-anchor="middle" font-size="9" font-weight="700" fill="white">06</text>
  <text x="624" y="609" text-anchor="middle" font-size="8" fill="rgba(255,255,255,0.85)">고도화 엔진</text>
  <text x="624" y="619" text-anchor="middle" font-size="7.5" fill="rgba(255,255,255,0.75)">V1→V4 루프</text>
  <line x1="660" y1="602" x2="676" y2="602" stroke="#4b5563" stroke-width="1.5" marker-end="url(#arrow-dark)"/>

  <!-- 07 -->
  <rect x="678" y="582" width="80" height="40" rx="6" fill="#2d8cf0"/>
  <text x="718" y="597" text-anchor="middle" font-size="9" font-weight="700" fill="white">07 ⭐</text>
  <text x="718" y="609" text-anchor="middle" font-size="8" fill="rgba(255,255,255,0.85)">명령어 생성</text>
  <text x="718" y="619" text-anchor="middle" font-size="7.5" fill="rgba(255,255,255,0.75)">Final Output</text>

  <!-- Data flow note -->
  <rect x="790" y="580" width="362" height="62" rx="6" fill="#f8faff" stroke="#dbeafe" stroke-width="1"/>
  <text x="806" y="596" font-size="9.5" font-weight="700" fill="#1e3a8a">Data Flow (localStorage)</text>
  <text x="806" y="610" font-size="8.5" fill="#374151">index → 01: 프로젝트 초기화 · projectId 생성</text>
  <text x="806" y="622" font-size="8.5" fill="#374151">01→02→03: complexity score + squad config 누적</text>
  <text x="806" y="634" font-size="8.5" fill="#374151">04→05→06→07: skills · tokens · refine → 최종 command</text>

  <!-- ==================== SHARED NAV COMPONENT DIAGRAM ==================== -->
  <rect x="30" y="672" width="1140" height="120" rx="10" fill="white" stroke="#e5e7eb" stroke-width="1.5" filter="url(#shadow-sm)"/>
  <text x="50" y="690" font-size="11" font-weight="700" fill="#1e3a8a">SHARED NAVIGATION COMPONENTS — buildNav() · buildProgress() · buildFooter() — 모든 7개 페이지에 공통 렌더링</text>

  <!-- Nav bar visual -->
  <rect x="42" y="698" width="1116" height="28" rx="5" fill="#0a0f1e"/>
  <text x="58" y="715" font-size="9" font-weight="700" fill="#58a6ff">VCOS</text>
  <!-- Nav items -->
  <rect x="100" y="703" width="48" height="18" rx="3" fill="rgba(255,255,255,0.08)"/>
  <text x="124" y="715" text-anchor="middle" font-size="7.5" fill="rgba(255,255,255,0.5)">01 인텐트</text>
  <rect x="154" y="703" width="48" height="18" rx="3" fill="rgba(255,255,255,0.08)"/>
  <text x="178" y="715" text-anchor="middle" font-size="7.5" fill="rgba(255,255,255,0.5)">02 복잡도</text>
  <rect x="208" y="703" width="48" height="18" rx="3" fill="#f85149"/>
  <text x="232" y="715" text-anchor="middle" font-size="7.5" font-weight="700" fill="white">03 분대 ←</text>
  <rect x="262" y="703" width="48" height="18" rx="3" fill="rgba(255,255,255,0.08)"/>
  <text x="286" y="715" text-anchor="middle" font-size="7.5" fill="rgba(255,255,255,0.5)">04 스킬</text>
  <rect x="316" y="703" width="52" height="18" rx="3" fill="rgba(255,255,255,0.08)"/>
  <text x="342" y="715" text-anchor="middle" font-size="7.5" fill="rgba(255,255,255,0.5)">05 토큰</text>
  <rect x="374" y="703" width="52" height="18" rx="3" fill="rgba(255,255,255,0.08)"/>
  <text x="400" y="715" text-anchor="middle" font-size="7.5" fill="rgba(255,255,255,0.5)">06 고도화</text>
  <rect x="432" y="703" width="56" height="18" rx="3" fill="rgba(255,255,255,0.08)"/>
  <text x="460" y="715" text-anchor="middle" font-size="7.5" fill="rgba(255,255,255,0.5)">07 명령어</text>
  <text x="1120" y="715" text-anchor="end" font-size="8" fill="rgba(255,255,255,0.4)">buildNav() — current step highlighted</text>

  <!-- Progress bar visual -->
  <rect x="42" y="730" width="1116" height="18" rx="4" fill="#f3f4f6"/>
  <rect x="42" y="730" width="450" height="18" rx="4" fill="linear-gradient(90deg, #1f6feb, #f85149)"/>
  <!-- Progress fill gradient using solid approximation -->
  <rect x="42" y="730" width="66" height="18" rx="0" fill="#1f6feb"/>
  <rect x="108" y="730" width="66" height="18" rx="0" fill="#c89520"/>
  <rect x="174" y="730" width="66" height="18" rx="0" fill="#f85149"/>
  <rect x="240" y="730" width="66" height="18" rx="0" fill="#3fb950" opacity="0.4"/>
  <rect x="306" y="730" width="66" height="18" rx="0" fill="#9d5fe0" opacity="0.25"/>
  <!-- Step dots -->
  <circle cx="75" cy="739" r="6" fill="#1f6feb"/>
  <text x="75" y="743" text-anchor="middle" font-size="7.5" fill="white">1</text>
  <circle cx="141" cy="739" r="6" fill="#c89520"/>
  <text x="141" y="743" text-anchor="middle" font-size="7.5" fill="white">2</text>
  <circle cx="207" cy="739" r="7" fill="#f85149" stroke="white" stroke-width="2"/>
  <text x="207" y="743" text-anchor="middle" font-size="7.5" font-weight="700" fill="white">3</text>
  <circle cx="273" cy="739" r="6" fill="#9ca3af"/>
  <text x="273" y="743" text-anchor="middle" font-size="7.5" fill="white">4</text>
  <circle cx="339" cy="739" r="6" fill="#9ca3af"/>
  <text x="339" y="743" text-anchor="middle" font-size="7.5" fill="white">5</text>
  <circle cx="405" cy="739" r="6" fill="#9ca3af"/>
  <text x="405" y="743" text-anchor="middle" font-size="7.5" fill="white">6</text>
  <circle cx="471" cy="739" r="6" fill="#9ca3af"/>
  <text x="471" y="743" text-anchor="middle" font-size="7.5" fill="white">7</text>
  <text x="900" y="743" text-anchor="middle" font-size="8" fill="#9ca3af">buildProgress() — step 3 of 7 active example</text>

  <!-- Footer visual -->
  <rect x="42" y="752" width="1116" height="28" rx="4" fill="#f9fafb" stroke="#e5e7eb" stroke-width="1"/>
  <text x="58" y="767" font-size="8" fill="#9ca3af">VCOS · Vibe Coding Operating System</text>
  <text x="380" y="767" text-anchor="middle" font-size="8" fill="#6b7280">Built with Claude Code · Powered by Anthropic</text>
  <text x="1100" y="767" text-anchor="end" font-size="8" fill="#9ca3af">© 2025 buildFooter()</text>
  <text x="700" y="778" text-anchor="middle" font-size="7.5" fill="#9ca3af">buildFooter() — 모든 페이지 공통 렌더링 · vcos.js 에서 자동 주입</text>

  <!-- ==================== LEGEND ==================== -->
  <rect x="30" y="888" width="900" height="0" rx="0"/>

  <!-- Legend items at bottom of SVG (inline, compact) -->
  <text x="36" y="893" font-size="9" font-weight="700" fill="#374151">LEGEND:</text>
  <rect x="84" y="882" width="12" height="12" rx="2" fill="#1a56db"/>
  <text x="100" y="892" class="legend-text">Hub/Index</text>
  <rect x="160" y="882" width="12" height="12" rx="2" fill="#c89520"/>
  <text x="176" y="892" class="legend-text">Analysis</text>
  <rect x="234" y="882" width="12" height="12" rx="2" fill="#f85149"/>
  <text x="250" y="892" class="legend-text">Squad</text>
  <rect x="300" y="882" width="12" height="12" rx="2" fill="#3fb950"/>
  <text x="316" y="892" class="legend-text">Skills</text>
  <rect x="362" y="882" width="12" height="12" rx="2" fill="#9d5fe0"/>
  <text x="378" y="892" class="legend-text">Token/AI</text>
  <rect x="436" y="882" width="12" height="12" rx="2" fill="#f0883e"/>
  <text x="452" y="892" class="legend-text">Refinement</text>
  <rect x="522" y="882" width="12" height="12" rx="2" fill="#2d8cf0"/>
  <text x="538" y="892" class="legend-text">Output</text>
  <rect x="590" y="882" width="12" height="12" rx="2" fill="#0d9488"/>
  <text x="606" y="892" class="legend-text">vcos.js</text>
  <rect x="654" y="882" width="12" height="12" rx="2" fill="#6433c5"/>
  <text x="670" y="892" class="legend-text">vcos.css</text>
  <line x1="730" y1="888" x2="760" y2="888" stroke="#1a56db" stroke-width="1.5" stroke-dasharray="4,2" marker-end="url(#arrow-blue)"/>
  <text x="765" y="892" class="legend-text">Hub link</text>
  <line x1="824" y1="888" x2="854" y2="888" stroke="#4b5563" stroke-width="1.5" marker-end="url(#arrow-dark)"/>
  <text x="859" y="892" class="legend-text">Linear flow</text>
  <text x="1000" y="892" font-size="9" fill="#9ca3af">1200 × 900px · SVG only · No external deps</text>

</svg>